# xmcd CD database file
#
# Track frame offsets:
#	150
#	10112
#	24167
#	38480
#	49907
#	57205
#	66705
#	75887
#	84845
#	95805
#
# Disc length: 1374 seconds
#
# Revision: 0
# Processed by: cddbd v1.5.1PL0 Copyright (c) Steve Scherf et al.
# Submitted via: CDex 1.51
#
DISCID=6d055c0a
DTITLE=Frank Sinatra - Frank Sinatra (Greatest Hits)
DYEAR=1993
DGENRE=Jazz
TTITLE0=Wonder Who's Kissing Her Know?
TTITLE1=A Lover Is Blue
TTITLE2=Day By Day
TTITLE3=Five More Minutes
TTITLE4=After I Say I'm Sorry
TTITLE5=Serenade Of The Bells
TTITLE6=I Wish I Didn't Love You So
TTITLE7=On The Sunny Side Of The Street
TTITLE8=You've Got A Hold On Me
TTITLE9=You're The Top
EXTD=YEAR: 1993
EXTT0=
EXTT1=
EXTT2=
EXTT3=
EXTT4=
EXTT5=
EXTT6=
EXTT7=
EXTT8=
EXTT9=
PLAYORDER=
